<svg xmlns="http://www.w3.org/2000/svg" xmlns:xlink="http://www.w3.org/1999/xlink" width="100" height="122" viewBox="0 0 100 122"><defs><clipPath id="a"><rect width="100" height="122" transform="translate(1583 17305)" fill="none"/></clipPath></defs><g transform="translate(-1583 -17305)" clip-path="url(#a)"><g transform="matrix(0.966, 0.259, -0.259, 0.966, 1047.511, 17124.564)"><path d="M681.841,92.023l-9.58-35.754-5.089,1.363-1.363-5.087-5.086,1.363-1.363-5.086-10.173,2.725-1.363-5.087-15.262,4.09-1.36-5.087L621.027,48.19l-5.452-20.347-5.086,1.363-1.365-5.087-10.319,2.765-3.724,6.451.013.042-7.523,7.466,9.53,35.566L585.639,79.48l-7.51,7.512,1.4,5.232,2.727,10.173,5.087-1.363,1.362,5.087,5.087-1.362,2.727,10.173,5.089-1.363,2.727,10.171,5.086-1.362,2.725,10.175,5.087-1.363,2.725,10.175,1.365,5.084L667.1,134.182l5.23-1.4,7.512-7.512-3.331-12.436,4.134-4.134.2-.052-3.331-12.439,4.132-4.132Zm-11.064,38.062-47.33,12.683-4.09-15.259-5.084,1.362L611.544,118.7l-5.086,1.363-2.727-10.175-5.087,1.363-2.727-10.173-5.087,1.363-1.363-5.087-5.087,1.362-2.9-10.826,5.117-5.119.5,1.849,15.262-4.088-1.362-5.087-.969.26-9.1-33.956,5.128-5.089,15.48,57.768,5.086-1.362-16.157-60.31,1.6-1.214,5.544-1.486.757,2.831,2.832-.759L622.7,75.079l5.087-1.363-5.45-20.346L629.68,51.4l.757,2.829,2.829-.757.606,2.257L646.3,52.4l.757,2.829,2.831-.759.606,2.258,4.085,15.25,5.089-1.363-4.09-15.25,2.258-.6.757,2.829,2.832-.759.606,2.258,2.255-.6.759,2.829,2.829-.759L676.55,92.92l-.6.6L671.577,94.7l3.978,14.844-.609.609-4.369,1.169,2.727,10.175-40.695,10.9-2.727-10.173-5.086,1.363,2.725,10.173,1.363,5.087,45.26-12.127Z" transform="translate(0)" fill="#fa9c87"/><rect width="5.268" height="15.799" transform="translate(633.873 55.73) rotate(-15.006)" fill="#fa9c87"/><rect width="5.267" height="5.265" transform="translate(602.355 80.531) rotate(-14.994)" fill="#fa9c87"/><rect width="5.267" height="10.534" transform="matrix(0.966, -0.259, 0.259, 0.966, 587.095, 84.619)" fill="#fa9c87"/><rect width="5.266" height="5.265" transform="translate(594.908 93.432) rotate(-15.014)" fill="#fa9c87"/><rect width="5.266" height="10.533" transform="translate(601.357 97.155) rotate(-15.012)" fill="#fa9c87"/><rect width="5.266" height="10.531" transform="translate(609.169 105.966) rotate(-15.014)" fill="#fa9c87"/><rect width="5.267" height="10.533" transform="translate(616.982 114.775) rotate(-15.003)" fill="#fa9c87"/></g></g></svg>