<svg xmlns="http://www.w3.org/2000/svg" width="32" height="26" viewBox="0 0 32 26"><g transform="translate(-1696 -17829)"><rect width="32" height="26" transform="translate(1696 17829)" fill="none"/><path d="M12.889,14.263a4.2,4.2,0,0,0,2.689-4.1c0-3.91-2.922-4.863-6.294-4.863H0V24.93H9.544c3.578,0,6.939-1.711,6.939-5.7a4.731,4.731,0,0,0-3.594-4.968ZM4.328,8.652H8.389c1.561,0,2.967.438,2.967,2.243,0,1.667-1.094,2.337-2.639,2.337H4.328ZM8.956,21.6H4.328V16.191H9.044c1.906,0,3.111.792,3.111,2.8,0,1.983-1.439,2.6-3.2,2.6ZM28.872,8.265H20.889V6.332h7.983V8.265ZM32,18.029c0-4.2-2.467-7.71-6.939-7.71a7.152,7.152,0,0,0-7.294,7.521c0,4.425,2.794,7.461,7.294,7.461,3.406,0,5.611-1.529,6.672-4.78H28.278a3.245,3.245,0,0,1-3.094,1.855c-2.294,0-3.5-1.34-3.5-3.617H31.967C31.983,18.528,32,18.279,32,18.029ZM21.689,16.3a3.056,3.056,0,0,1,3.25-3.035c1.967,0,2.956,1.152,3.122,3.035Z" transform="translate(1696 17826.699)" fill="#fff"/></g></svg>