<svg xmlns="http://www.w3.org/2000/svg" width="32" height="26" viewBox="0 0 32 26"><g transform="translate(-1756 -17829)"><rect width="32" height="26" transform="translate(1756 17829)" fill="none"/><path d="M-.18,2.772A2.394,2.394,0,0,1,.6.938,2.849,2.849,0,0,1,2.617.216,2.764,2.764,0,0,1,4.593.927,2.508,2.508,0,0,1,5.37,2.838a2.341,2.341,0,0,1-.755,1.778,2.854,2.854,0,0,1-2.042.733H2.551A2.715,2.715,0,0,1,.575,4.616,2.464,2.464,0,0,1-.18,2.772ZM.109,22.216V7.372H5.037V22.216H.109Zm7.659,0H12.7V13.927a3.2,3.2,0,0,1,.178-1.2,3.223,3.223,0,0,1,.944-1.278,2.411,2.411,0,0,1,1.587-.522q2.486,0,2.486,3.356v7.933H22.82V13.7a7.157,7.157,0,0,0-1.554-4.989,5.3,5.3,0,0,0-4.107-1.7A5.037,5.037,0,0,0,12.7,9.483v.044h-.022l.022-.044V7.372H7.768q.044.711.044,4.422T7.768,22.216Z" transform="translate(1761.18 17830.785)" fill="#fff"/></g></svg>